From the Academy Award(R)-winning creators of TOY STORY and MONSTERS, INC. (2001, Best Animated Short Film, FOR THE BIRDS), it's FINDING NEMO, a hilarious adventure where you'll meet colorful characters that take you into the breathtaking underwater world of Australia's Great Barrier Reef. Nemo, an adventurous young clownfish, is unexpectedly taken to a dentist's office aquarium. It's up to Marlin (Albert Brooks), his worrisome father, and Dory (Ellen DeGeneres), a friendly but forgetful regal blue tang fish, to make the epic journey to bring Nemo home. Their adventure brings them face-to-facemore… with vegetarian sharks, surfer dude turtles, hypnotic jellyfish, hungry seagulls, and more. Marlin discovers a bravery he never knew, but will he be able to find his son? FINDING NEMO's breakthrough computer animation takes you into a whole new world with this undersea adventure about family, courage, and challenges. Take the plunge into FINDING NEMO, a "spectacularly beautiful animated adventure

Format : MPEG-4
Format profile : Base Media / Version 2
Codec ID : mp42
File size : 900 MiB
Duration : 1h 36mn
Overall bit rate : 1 304 Kbps
Encoded date : UTC 2009-08-12 10:44:54
Tagged date : UTC 2009-08-12 16:07:05
Writing application : HandBrake 0.9.3 2008112300

Video
ID : 1
Format : AVC
Format/Info : Advanced Video Codec
Format profile : Main@L4.0
Format settings, CABAC : Yes
Format settings, ReFrames : 3 frames
Codec ID : avc1
Codec ID/Info : Advanced Video Coding
Duration : 1h 36mn
Bit rate mode : Variable
Bit rate : 1 141 Kbps
Width : 720 pixels
Height : 572 pixels
Display aspect ratio : 16/9
Frame rate mode : Variable
Frame rate : 25.000 fps
Minimum frame rate : 12.500 fps
Maximum frame rate : 25.000 fps
Resolution : 24 bits
Colorimetry : 4:2:0
Scan type : Progressive
Bits/(Pixel*Frame) : 0.111
Stream size : 787 MiB (87%)
Writing library : x264 core 65

Audio
ID : 2
Format : AAC
Format/Info : Advanced Audio Codec
Format version : Version 4
Format profile : LC
Format settings, SBR : No
Codec ID : 40
Duration : 1h 36mn
Bit rate mode : Variable
Bit rate : 160 Kbps
Maximum bit rate : 215 Kbps
Channel(s) : 2 channels
Channel positions : L R
Sampling rate : 48.0 KHz
Resolution : 16 bits
Stream size : 110 MiB (12%)
Language : English
Encoded date : UTC 2009-08-12 10:44:54
Tagged date : UTC 2009-08-12 16:06:58